<?xml version="1.0" encoding="utf-8"?>
<!-- Generator: Adobe Illustrator 24.1.1, SVG Export Plug-In . SVG Version: 6.00 Build 0)  -->
<svg version="1.1" xmlns="http://www.w3.org/2000/svg" xmlns:xlink="http://www.w3.org/1999/xlink" x="0px" y="0px"
	 viewBox="0 0 48 48" enable-background="new 0 0 48 48" xml:space="preserve">
<g id="Outline">
	<polygon points="4,34 4,38 6,38 6,40 8,40 8,42 10,42 10,44 14,44 14,48 20,48 20,46 28,46 28,48 34,48 34,44 38,44 38,42 40,42 
		40,40 42,40 42,32 38,32 38,30 40,30 40,28 42,28 42,20 40,20 40,16 44,16 44,12 40,12 40,0 22,0 22,12 18,12 18,16 22,16 22,18 
		20,18 20,26 16,26 16,28 14,28 14,30 12,30 12,32 6,32 6,34 	"/>
</g>
<g id="Base_Color">
	<polygon fill="#FFEB3B" points="6,34 6,38 8,38 8,40 10,40 10,42 14,42 14,44 34,44 34,42 38,42 38,40 40,40 40,32 38,32 38,36 
		34,36 34,34 32,34 32,36 28,36 28,30 32,30 32,32 34,32 34,30 38,30 38,28 40,28 40,26 38,26 38,22 40,22 40,20 38,20 38,16 24,16 
		24,18 22,18 22,26 20,26 20,28 16,28 16,30 14,30 14,32 12,32 12,34 	"/>
</g>
<g id="Overlay">
	<polygon points="12,36 16,36 16,40 20,40 20,38 12,38 	"/>
	<rect x="28" y="22" width="4" height="4"/>
</g>
<g id="Shading">
	<rect x="22" y="34" fill="#FFC107" width="2" height="2"/>
	<polyline fill="#FFC107" points="30,44 30,42 36,42 36,40 40,40 40,34 38,34 38,36 34,36 34,34 32,34 32,36 28,36 28,38 26,38 
		26,40 22,40 22,42 20,42 20,44 	"/>
	<polygon fill="#FFC107" points="32,30 32,32 34,32 34,30 36,30 36,28 33,28 33,26 31,26 31,28 32,28 	"/>
	<rect x="30" y="42" fill="#FF9800" width="4" height="2"/>
	<rect x="36" y="40" fill="#FF9800" width="2" height="2"/>
	<rect x="38" y="32" fill="#FF9800" width="2" height="2"/>
	<polygon fill="#FF9800" points="36,28 36,30 38,30 38,26 40,26 40,28 	"/>
	<rect x="20" y="36" fill="#FF9800" width="2" height="2"/>
	<rect x="6" y="34" fill="#FF9800" width="2" height="2"/>
	<rect x="26" y="30" fill="#FFC107" width="2" height="2"/>
</g>
<g id="Detail">
	<polygon fill="#FFFFFF" points="20,26 20,28 24,28 24,32 28,32 28,34 26,34 26,30 22,30 22,26 	"/>
	<rect x="32" y="24" fill="#E53935" width="6" height="2"/>
	<rect x="33" y="26" fill="#D50000" width="5" height="2"/>
</g>
</svg>
